<svg width="323" height="323" viewBox="0 0 323 323" fill="none" xmlns="http://www.w3.org/2000/svg">
<mask id="mask0_15_2" style="mask-type:luminance" maskUnits="userSpaceOnUse" x="2" y="2" width="319" height="319">
<path d="M2.5802 2.58022H320.413V320.413H2.5802V2.58022Z" fill="white"/>
</mask>
<g mask="url(#mask0_15_2)">
<path d="M161.5 305.967C241.285 305.967 305.967 241.285 305.967 161.5C305.967 81.7089 241.285 17.0332 161.5 17.0332C81.7089 17.0332 17.0332 81.7152 17.0332 161.5C17.0332 241.285 81.7152 305.967 161.5 305.967ZM161.5 320.412C73.7348 320.412 2.5802 249.264 2.5802 161.499C2.5802 73.7336 73.7285 2.57895 161.5 2.57895C249.265 2.57895 320.413 73.7273 320.413 161.499C320.413 249.264 249.265 320.412 161.5 320.412ZM206.153 116.84V74.8142H116.842V116.84H74.8161V206.151H116.842V248.179H206.153V206.151H248.181V116.84H206.153ZM190.394 90.5731V132.602H232.42V190.39H190.394V232.416H132.606V190.39H90.5775V132.602H132.606V90.5731H190.394ZM181.949 163.608C186.466 156.986 186.291 147.883 180.763 142.558C175.795 136.604 167.296 136.429 161.13 141.321C155.573 136.363 147.313 136.777 142.205 142.558C136.778 148.093 136.433 157.07 141.17 163.044L161.67 185.136L181.949 163.608Z" fill="#FF0000"/>
</g>
</svg>
